<?xml version="1.0" encoding="UTF-8" standalone="no"?>
<svg
   width="512"
   height="512"
   viewBox="0 0 135.46666 135.46667"
   version="1.1"
   id="svg8"
   inkscape:version="1.3.2 (091e20e, 2023-11-25, custom)"
   xml:space="preserve"
   sodipodi:docname="parchment-black.svg"
   xmlns:inkscape="http://www.inkscape.org/namespaces/inkscape"
   xmlns:sodipodi="http://sodipodi.sourceforge.net/DTD/sodipodi-0.dtd"
   xmlns="http://www.w3.org/2000/svg"
   xmlns:svg="http://www.w3.org/2000/svg"
   xmlns:rdf="http://www.w3.org/1999/02/22-rdf-syntax-ns#"
   xmlns:cc="http://creativecommons.org/ns#"
   xmlns:dc="http://purl.org/dc/elements/1.1/"><defs
     id="defs2" /><sodipodi:namedview
     id="base"
     pagecolor="#ffffff"
     bordercolor="#666666"
     borderopacity="1.0"
     inkscape:pageopacity="0.0"
     inkscape:pageshadow="2"
     inkscape:zoom="0.40869142"
     inkscape:cx="338.88649"
     inkscape:cy="488.14335"
     inkscape:document-units="px"
     inkscape:current-layer="layer1"
     inkscape:document-rotation="0"
     showgrid="false"
     showborder="false"
     units="px"
     inkscape:showpageshadow="0"
     inkscape:pagecheckerboard="false"
     inkscape:deskcolor="#505050"
     inkscape:window-width="1920"
     inkscape:window-height="1057"
     inkscape:window-x="-8"
     inkscape:window-y="-8"
     inkscape:window-maximized="1" /><metadata
     id="metadata5"><rdf:RDF><cc:Work
         rdf:about=""><dc:format>image/svg+xml</dc:format><dc:type
           rdf:resource="http://purl.org/dc/dcmitype/StillImage" /></cc:Work></rdf:RDF></metadata><g
     inkscape:label="Layer 1"
     inkscape:groupmode="layer"
     id="layer1"
     style="display:inline"
     transform="translate(-17.202051,-19.223141)"><path
       id="path1"
       style="display:inline;fill:#000000;stroke-width:0.435898"
       inkscape:label="path1"
       d="m 57.429044,20.175409 -23.066674,0.0229 -0.857964,0.187216 c -2.715248,0.590826 -4.666887,1.387488 -6.372091,2.602173 l -1.002752,0.71452 -1.077505,1.113197 -1.078178,1.113196 -0.659971,0.995345 c -1.175863,1.772433 -1.951289,3.689488 -2.466139,6.097328 l -0.209439,0.980529 0.0034,2.710597 0.004,2.709924 0.254561,1.468099 c 0.140106,0.8074 0.386885,2.027338 0.54818,2.710596 l 0.29362,1.241825 0.283518,0.429654 c 0.156044,0.236098 0.45286,0.521655 0.659298,0.634381 l 0.375107,0.204726 10.639009,0.033 10.639681,0.033 V 90.878548 135.5795 l 0.179809,1.22566 c 1.337457,9.10794 8.957904,16.22249 18.042137,16.84475 l 1.326678,0.091 9.68811,-0.0451 c 12.66516,-0.059 31.065601,-0.24376 38.174621,-0.38318 3.10818,-0.061 9.28448,-0.16646 13.72472,-0.23436 8.68089,-0.13282 9.56251,-0.18188 11.31245,-0.63572 6.18941,-1.60524 10.71166,-6.5817 12.17917,-13.40281 l 0.266,-1.2398 -6.6e-4,-3.05608 -0.001,-3.05606 -0.14748,-1.03845 c -0.2821,-1.98841 -0.56993,-2.6205 -1.36438,-2.99748 l -0.42494,-0.20137 -9.1507,0.0202 -9.15072,0.0202 -6.6e-4,-43.803925 -6.8e-4,-43.803247 -0.12185,-1.326004 c -0.85446,-9.29391 -6.84615,-16.221448 -15.41719,-17.824677 l -0.895,-0.167687 -4.09384,-0.113807 C 101.57202,20.259377 81.64698,20.1513 57.429044,20.175409 Z m -14.146959,4.196206 20.566864,0.0013 c 20.455489,8.34e-4 37.793151,0.134171 44.729231,0.344127 l 3.6332,0.109767 1.03778,0.221562 c 5.64839,1.20577 9.65797,5.545266 11.14948,12.067375 l 0.26331,1.153603 0.033,44.528542 0.0323,44.527869 -2.33684,0.0761 c -1.28523,0.0416 -12.86629,0.0752 -25.735519,0.0755 l -23.39868,6.6e-4 -0.386555,0.23907 c -0.502063,0.3103 -0.8066,0.74811 -0.969081,1.39335 l -0.130647,0.5199 0.408778,1.54757 c 0.442901,1.6754 0.704332,3.17653 0.822271,4.71946 l 0.07543,0.97986 -0.131995,1.18996 c -0.524649,4.72663 -2.981462,8.55674 -6.635406,10.34606 l -1.037772,0.50846 -0.749538,0.16633 c -6.27234,1.39105 -13.536191,-4.07344 -15.602937,-11.73806 L 48.66688,136.41588 48.602229,86.01629 48.5369,35.616698 48.337562,34.636169 c -0.816994,-4.004814 -2.302836,-7.204032 -4.458809,-9.601238 z m -8.8618,0.243785 0.709132,0.114485 c 0.390266,0.06285 1.12213,0.272906 1.626359,0.467367 l 0.917225,0.353556 1.006794,0.674114 1.007466,0.673441 0.780517,0.827657 c 1.791407,1.899001 3.043582,4.511366 3.598192,7.506839 l 0.199338,1.075484 0.0081,2.825755 0.0074,2.825082 -0.519222,0.004 c -0.28545,0.0018 -4.500132,-0.01147 -9.366207,-0.02963 l -8.847658,-0.033 -0.112465,-0.431674 c -0.0621,-0.237479 -0.199513,-0.873026 -0.305068,-1.412204 l -0.191931,-0.979855 -0.05993,-1.862736 -0.05993,-1.862735 0.196644,-1.193337 c 0.360905,-2.191316 1.097558,-3.995266 2.268821,-5.553861 l 0.58926,-0.783885 0.822944,-0.694991 c 1.383421,-1.168525 3.409843,-2.137101 5.009721,-2.394754 z m 23.864028,17.632686 -0.456593,0.233009 -0.456592,0.233011 -0.298334,0.450532 -0.298334,0.451204 -0.06129,0.45592 -0.06061,0.455919 0.138054,0.420226 c 0.155301,0.470581 0.594632,1.0395 0.967735,1.253272 l 0.247151,0.141423 14.762484,0.05725 v 6.74e-4 c 8.119305,0.03167 20.925069,0.07253 28.457566,0.09091 l 13.69574,0.033 0.48624,-0.130647 0.48555,-0.130647 0.42561,-0.425614 0.42562,-0.425614 0.13468,-0.499021 0.13401,-0.499018 -0.0768,-0.45794 -0.0774,-0.457266 -0.3623,-0.412818 c -0.19916,-0.226833 -0.57004,-0.506798 -0.82429,-0.62226 l -0.46265,-0.210113 -28.462284,-0.0027 z m 1.566421,40.023226 -0.743477,0.175767 c -0.408953,0.0964 -1.076493,0.338662 -1.482915,0.538753 l -0.738765,0.363658 -0.689603,0.679501 -0.690276,0.679501 -0.414165,0.872105 -0.41484,0.872778 -0.05051,0.612157 c -0.08799,1.060909 0.280582,1.726132 1.183234,2.136154 1.246196,0.566062 2.222705,0.105818 2.90118,-1.368432 l 0.384535,-0.836413 0.3778,-0.230316 0.377799,-0.230317 h 26.699213 26.699206 l 0.36097,0.220215 0.36029,0.220215 0.30641,0.800721 0.30575,0.800721 0.25591,0.233683 c 0.14066,0.128572 0.42194,0.317666 0.62494,0.420227 l 0.36905,0.186543 h 0.58792 0.58858 l 0.32325,-0.167014 c 0.17772,-0.09191 0.48359,-0.350557 0.68018,-0.574444 l 0.35759,-0.406757 0.0761,-0.406759 c 0.11638,-0.620121 -0.0328,-1.326235 -0.4768,-2.252658 l -0.40272,-0.840453 -0.71991,-0.703072 -0.71922,-0.703744 -0.79332,-0.384535 c -0.43644,-0.211468 -1.1357,-0.45674 -1.5543,-0.545487 l -0.76167,-0.161625 H 86.434788 Z m 46.709146,6.442128 -0.64179,0.04108 -0.6418,0.04108 -0.35355,0.251193 c -0.19419,0.138268 -0.43714,0.428849 -0.5401,0.645829 l -0.18721,0.394636 v 1.107136 c 0,0.608874 -0.0205,1.107136 -0.0458,1.107136 -0.0253,0 -0.47978,-0.232824 -1.00948,-0.517202 l -0.96302,-0.517202 -0.51855,-6.74e-4 -0.51922,-0.0013 -0.37578,0.22897 c -0.20673,0.126044 -0.47941,0.398025 -0.60543,0.60475 l -0.228967,0.375779 -6.74e-4,0.56367 v 0.562996 l 0.224931,0.359617 0.22425,0.359616 0.92329,0.576465 c 1.11602,0.6971 1.11733,0.572367 -0.0141,1.268761 -0.51532,0.317157 -1.04462,0.723314 -1.1765,0.902411 l -0.239743,0.325272 v 0.617545 0.617543 l 0.237723,0.318538 c 0.13079,0.175174 0.37144,0.418251 0.53471,0.540099 l 0.29699,0.221561 0.50306,0.05522 0.50373,0.05523 1.05394,-0.529324 c 0.57961,-0.291132 1.08513,-0.529324 1.12397,-0.529324 0.0388,0 0.0712,0.506192 0.0714,1.124646 v 1.124637 l 0.22964,0.37578 c 0.12606,0.20674 0.39803,0.47873 0.60475,0.60475 l 0.37577,0.22897 h 0.57715 0.57646 l 0.36837,-0.22493 c 0.20271,-0.1236 0.46273,-0.36727 0.57714,-0.54144 l 0.2081,-0.31652 0.0572,-1.234412 0.0579,-1.233742 0.86469,0.50508 c 0.95551,0.558439 1.41258,0.688604 2.02099,0.574445 l 0.40609,-0.07677 0.39935,-0.35019 0.40002,-0.350862 0.12589,-0.469388 0.12654,-0.469387 -0.0727,-0.387902 -0.0727,-0.387228 -0.332,-0.372413 c -0.18257,-0.204796 -0.69744,-0.579988 -1.14419,-0.833718 -0.98886,-0.561635 -1.00148,-0.459411 0.13738,-1.153603 l 0.94619,-0.576466 0.26669,-0.537405 0.26667,-0.537405 -0.0748,-0.400697 c -0.1053,-0.561008 -0.44819,-1.081776 -0.88961,-1.350921 l -0.37645,-0.228969 -0.50913,-6.74e-4 h -0.50979 l -0.95966,0.518548 c -0.52792,0.28545 -0.98659,0.519223 -1.01891,0.519223 -0.0323,0 -0.059,-0.531715 -0.0593,-1.181888 v -1.182561 l -0.22897,-0.375779 c -0.12602,-0.206737 -0.39869,-0.48236 -0.60542,-0.612157 z m -39.873054,0.01277 -0.448511,0.252541 -0.447837,0.251866 -0.23099,0.476123 -0.230317,0.476795 v 1.069424 1.069422 l -0.8849,-0.484877 c -0.486375,-0.266945 -1.041045,-0.530898 -1.23307,-0.585893 l -0.349515,-0.09967 -0.423594,0.113808 c -0.531987,0.143259 -0.982459,0.493391 -1.21556,0.944163 l -0.180481,0.348169 v 0.511814 0.511815 l 0.203378,0.311803 c 0.249873,0.383942 0.363125,0.473258 1.367084,1.077503 l 0.801393,0.482185 -0.280823,0.183175 c -1.19386,0.777779 -1.685549,1.149703 -1.89102,1.431061 l -0.238399,0.325945 v 0.617545 0.617543 l 0.237725,0.325273 c 0.285346,0.391357 1.13003,0.844493 1.57383,0.844493 h 0.320557 l 1.096361,-0.570403 1.097034,-0.569731 v 1.177847 1.177851 l 0.299681,0.4411 0.29968,0.44111 0.478817,0.2229 0.478142,0.22291 0.455919,-0.066 c 0.250799,-0.0361 0.63332,-0.17526 0.849881,-0.30911 l 0.393964,-0.24311 0.214154,-0.47276 0.214826,-0.47208 0.0027,-1.018915 0.0027,-1.018242 0.08619,0.04175 c 0.04758,0.02331 0.524853,0.26125 1.060669,0.528651 l 0.974468,0.486224 h 0.326619 c 0.489542,0 1.043271,-0.27037 1.385266,-0.676808 l 0.304396,-0.36231 0.07407,-0.492959 0.07407,-0.492958 -0.194624,-0.48555 -0.193951,-0.48555 -1.029017,-0.652564 -1.029016,-0.652564 0.781191,-0.460633 c 1.847248,-1.089776 2.21837,-2.403357 0.974468,-3.450034 l -0.357597,-0.301029 -0.488244,-0.08217 -0.488246,-0.08283 -1.130032,0.582526 -1.130705,0.582525 V 91.222653 90.15929 L 68.759744,89.653537 68.500468,89.147111 68.098425,88.936997 67.697054,88.72621 h -0.50508 z m 19.187659,0.05791 -0.318537,0.237723 c -0.175172,0.130788 -0.425474,0.381297 -0.556262,0.556263 l -0.237724,0.317864 -0.03906,1.195356 -0.03906,1.194683 -1.124646,-0.58522 -1.125319,-0.584545 -0.408778,0.07677 c -0.224878,0.04218 -0.583426,0.192935 -0.796679,0.335373 l -0.387229,0.259275 -0.202032,0.40137 -0.201358,0.401371 -6.74e-4,0.437735 c -3.25e-4,0.802971 0.351115,1.238128 1.605482,1.986649 l 0.740784,0.441778 -0.221562,0.160277 c -0.121887,0.0881 -0.557825,0.377017 -0.968407,0.642463 l -0.746172,0.482857 -0.224255,0.389247 -0.224256,0.389923 v 0.489591 0.489591 l 0.22493,0.385207 c 0.123815,0.212016 0.401393,0.488008 0.616197,0.613505 l 0.390595,0.228296 0.527977,-6.74e-4 h 0.527978 l 1.008814,-0.524609 1.009486,-0.524611 v 1.083566 1.082896 l 0.156911,0.37107 c 0.199049,0.47028 0.517089,0.75327 1.074811,0.95695 l 0.44043,0.16096 0.404065,-0.066 c 0.517271,-0.0846 1.071324,-0.4266 1.342166,-0.82765 l 0.212806,-0.31517 0.05859,-1.231731 0.05859,-1.232396 0.922615,0.525284 0.922613,0.525956 0.461306,0.05253 0.461307,0.05253 0.507099,-0.271397 0.507102,-0.271396 0.21348,-0.398677 0.214154,-0.39935 v -0.532692 -0.53269 L 92.400804,97.01896 92.138836,96.627017 91.252588,96.107795 c -1.080221,-0.632254 -1.080849,-0.526357 0.01082,-1.180541 l 0.907797,-0.54414 0.216848,-0.319884 0.216847,-0.319884 V 93.030865 92.31904 L 92.367846,91.993095 92.131469,91.667822 91.57386,91.388345 91.016252,91.108868 90.54215,91.236827 c -0.261026,0.07009 -0.844401,0.330395 -1.296372,0.57916 l -0.82227,0.452551 -0.05321,-1.199397 -0.0532,-1.199397 -0.227622,-0.305068 C 87.96427,89.396982 87.718481,89.15267 87.54332,89.021882 l -0.318538,-0.237723 h -0.674786 z m -28.992275,12.60209 -0.506426,0.0572 -0.506428,0.0566 -0.396656,0.27207 c -0.217971,0.14935 -0.508921,0.47256 -0.647176,0.71855 l -0.251867,0.44717 0.05657,0.78321 0.05589,0.78321 0.346148,0.73943 0.346149,0.74012 0.721253,0.77108 0.721929,0.77177 0.82227,0.40204 c 0.452386,0.22112 1.108449,0.47677 1.457325,0.56839 l 0.634381,0.16634 26.769922,0.008 26.769916,0.008 0.62092,-0.1152 c 0.34168,-0.0633 1.00095,-0.30117 1.46473,-0.52865 l 0.84315,-0.41348 0.68489,-0.67007 0.68489,-0.67075 0.40675,-0.85594 0.40676,-0.85663 0.0693,-0.58656 c 0.0379,-0.32274 0.0343,-0.77142 -0.008,-0.99736 l -0.0768,-0.4108 -0.29834,-0.3549 c -0.16403,-0.19495 -0.49689,-0.45577 -0.7401,-0.57983 l -0.44246,-0.22561 h -0.46938 c -0.58817,0 -1.1195,0.21988 -1.52938,0.6337 l -0.3172,0.32056 -0.12523,0.47411 c -0.0687,0.26087 -0.20505,0.64035 -0.30305,0.84314 l -0.17779,0.36904 -0.41753,0.20809 -0.4182,0.20743 H 86.661064 60.188802 l -0.483531,-0.21819 -0.484203,-0.21821 -0.184523,-0.28149 c -0.101583,-0.15504 -0.258682,-0.53202 -0.349515,-0.83776 l -0.164993,-0.55635 -0.392615,-0.3448 c -0.215886,-0.18956 -0.584602,-0.40801 -0.819577,-0.48555 z m 19.839549,30.24352 h 34.028261 34.02825 l 0.0774,0.12523 c 0.0425,0.0687 0.10256,1.19762 0.13402,2.50857 l 0.0572,2.38331 -0.18048,1.09636 c -0.31829,1.93029 -1.073,3.85827 -2.16578,5.53501 l -0.48825,0.74954 -1.10309,1.10982 -1.10376,1.10983 -0.88558,0.57646 c -1.14167,0.74286 -2.64925,1.37695 -3.95781,1.66408 l -1.03844,0.22762 -5.42053,0.10165 c -10.11855,0.18902 -20.27137,0.34578 -29.467042,0.45525 -5.042865,0.06 -13.214903,0.14409 -18.15999,0.18722 l -8.9911,0.0781 0.669399,-0.73675 c 1.907015,-2.09917 3.515379,-5.37213 4.186778,-8.52104 l 0.208767,-0.98053 v -2.76784 -2.76783 l -0.15085,-0.80746 c -0.083,-0.44403 -0.179229,-0.92403 -0.214154,-1.06672 z" /></g></svg>
