<?xml version="1.0" encoding="UTF-8" standalone="no"?>
<svg
   id="emoji"
   viewBox="0 0 72 72"
   version="1.1"
   sodipodi:docname="password-genie-blue.svg"
   inkscape:version="1.3.2 (091e20e, 2023-11-25, custom)"
   inkscape:export-filename="password-genie-blue_256x.png"
   inkscape:export-xdpi="341.33334"
   inkscape:export-ydpi="341.33334"
   xmlns:inkscape="http://www.inkscape.org/namespaces/inkscape"
   xmlns:sodipodi="http://sodipodi.sourceforge.net/DTD/sodipodi-0.dtd"
   xmlns="http://www.w3.org/2000/svg"
   xmlns:svg="http://www.w3.org/2000/svg">
  <defs
     id="defs16" />
  <sodipodi:namedview
     id="namedview16"
     pagecolor="#505050"
     bordercolor="#eeeeee"
     borderopacity="1"
     inkscape:showpageshadow="0"
     inkscape:pageopacity="0"
     inkscape:pagecheckerboard="0"
     inkscape:deskcolor="#505050"
     showguides="true"
     inkscape:zoom="7.4706722"
     inkscape:cx="27.641422"
     inkscape:cy="37.145252"
     inkscape:window-width="1920"
     inkscape:window-height="1057"
     inkscape:window-x="-8"
     inkscape:window-y="-8"
     inkscape:window-maximized="1"
     inkscape:current-layer="emoji" />
  <g
     id="g4"
     transform="matrix(1.2631969,0,0,1.2631969,-9.4796359,-10.736433)">
    <g
       id="g2"
       inkscape:label="face"
       style="display:inline">
      <ellipse
         cx="36.003502"
         cy="30.098801"
         rx="11.3386"
         ry="14.1732"
         fill="#b1cc33"
         id="ellipse4"
         style="fill:#fcea2b;fill-opacity:1" />
      <path
         d="m 42.0036,28.738 a 2,2 0 1 1 -2,-2 2.0007,2.0007 0 0 1 2,2"
         id="path10"
         style="stroke-width:1;stroke-dasharray:none" />
      <path
         d="m 34.0036,28.738 a 2,2 0 1 1 -2,-2 2.0007,2.0007 0 0 1 2,2"
         id="path11" />
      <path
         d="m 36.0035,38.74 a 7.6528,7.6528 0 0 1 -3.4473,-0.8579 1.0001485,1.0001485 0 0 1 0.8946,-1.7891 5.3772,5.3772 0 0 0 5.1054,0 1.0001485,1.0001485 0 0 1 0.8946,1.7891 7.6528,7.6528 0 0 1 -3.4473,0.8579 z"
         id="path12" />
      <path
         fill="none"
         stroke="#000000"
         stroke-linecap="round"
         stroke-linejoin="round"
         stroke-width="2"
         d="m 24.7429,28.2805 a 17.8611,17.8611 0 0 0 -0.0948,1.8417 c 0,7.8276 5.0765,14.1732 11.3386,14.1732 6.2621,0 11.3386,-6.3454 11.3386,-14.1732 a 17.8264,17.8264 0 0 0 -0.101,-1.9"
         id="path16"
         style="display:inline;stroke-width:1.5;stroke-dasharray:none"
         inkscape:label="path16" />
    </g>
    <g
       id="g1"
       inkscape:label="turban"
       style="display:inline">
      <path
         fill="#ffffff"
         d="m 49.1748,14.6732 c -13.1713,4.1165 -24.51,13.5184 -24.51,13.5184 0,0 -3.96,-5.3394 -2.2369,-10.7265 0,0 2.2369,-8.0773 13.036,-8.0773 7.7035,0 11.5948,3.1694 13.7108,5.2854 6.1464,8.7249 -2.1347,13.6042 -2.1347,13.6042 a 126.1662,126.1662 0 0 1 -9.655,-8.3413"
         id="path5" />
      <path
         fill="#d0cfce"
         d="M 49.1748,14.6732 C 55.3211,23.3981 47.04,28.2774 47.04,28.2774 43.635719,25.235655 39.987336,22.498989 36.485815,20.409355"
         id="path6"
         sodipodi:nodetypes="ccc" />
      <path
         fill="none"
         stroke="#000000"
         stroke-linecap="round"
         stroke-linejoin="round"
         stroke-width="2"
         d="M 49.150164,14.780452 C 39.377226,18.306402 31.397143,21.74016 24.776,28.164628 c -0.07,0.06 -0.11,0.02307 -0.11,0.02307 0,0 -3.96,-5.34 -2.24,-10.72 0,0 2.24,-8.08 13.04,-8.08 7.7,0 10.351825,1.49679 13.71,5.29 5.58,7.91 -0.72,12.65 -1.94,13.47 -0.13,0.09 -0.2,0.13 -0.2,0.13 0,0 -4.741279,-4.847091 -10.639067,-7.986628"
         id="path13"
         style="stroke-width:1.5;stroke-dasharray:none"
         sodipodi:nodetypes="ccccscccc" />
    </g>
    <g
       id="g18"
       style="display:inline;stroke-width:1.5;stroke-dasharray:none"
       transform="translate(0.09596393,0.14197654)"
       inkscape:label="password">
      <circle
         style="fill:#99ccff;fill-opacity:1;stroke:#000000;stroke-width:1.5;stroke-linecap:round;stroke-linejoin:round;stroke-dasharray:none;stroke-opacity:1;paint-order:stroke fill markers"
         id="path18"
         cx="30.619608"
         cy="13.771724"
         r="1.4670908" />
      <circle
         style="fill:#99ccff;fill-opacity:1;stroke:#000000;stroke-width:1.5;stroke-linecap:round;stroke-linejoin:round;stroke-dasharray:none;stroke-opacity:1;paint-order:stroke fill markers"
         id="path18-3"
         cx="41.574268"
         cy="13.771724"
         r="1.4670908" />
      <circle
         style="fill:#99ccff;fill-opacity:1;stroke:#000000;stroke-width:1.5;stroke-linecap:round;stroke-linejoin:round;stroke-dasharray:none;stroke-opacity:1;paint-order:stroke fill markers"
         id="path18-1"
         cx="36.096939"
         cy="13.771724"
         r="1.4670908" />
    </g>
    <g
       id="g3"
       inkscape:label="body"
       style="display:inline">
      <path
         fill="#b1cc33"
         d="m 45.5218,50.5618 0.797,2.48 -1.1339,4.9948 -5.1813,5.6743 a 23.9672,23.9672 0 0 0 14.9375,-4.1124 c 0,0 2,-13 -10,-13 -3.1918,2.1279 -5.9264,3.5984 -9,3.5921 h 0.125 c -3.0736,0.0063 -5.8081,-1.4642 -9,-3.5921 -12,0 -10,13 -10,13 9.9776,6.0208 14.368,3.708 28.1188,-1.5619 l 0.6171,-3.5208 -24.0677,1.35 5.3094,-0.9076"
         id="path1"
         style="display:inline;fill:#99ccff" />
      <path
         fill="#b1cc33"
         d="m 54.9259,59.5988 c 0,0 2,-13 -10,-13 -3.1919,2.1279 -5.9264,3.5984 -9,3.5921 h 0.125 c -3.0736,0.0063 -5.8081,-1.4642 -9,-3.5921 -12,0 -10,13 -10,13"
         id="path2"
         style="display:inline;fill:#99ccff" />
      <path
         fill="#5c9e31"
         d="m 45.2082,46.5988 a 18.0129,18.0129 0 0 1 -8.9375,3.5885 c 13.0625,0.4115 13.0625,5.4115 13.8247,9.4115 h 5.1128 c 0,0 2,-13 -10,-13 z"
         id="path3"
         style="display:inline;fill:#3e9ade;fill-opacity:1" />
      <path
         fill="#5c9e31"
         d="m 55.2082,59.5988 c 0,0 -11.7562,9.0259 -20.7368,2.9632 l 10.7135,-4.5251 1.1339,-4.9948 c 0,0 8.977,-2.4641 8.8894,6.5567 z"
         id="path4"
         style="display:inline;fill:#3e9ade;fill-opacity:1" />
      <polygon
         fill="#fcea2b"
         points="45.185,58.037 40.773,59.868 40.773,54.623 45.802,54.623 "
         id="polygon7"
         style="display:inline" />
      <path
         fill="none"
         stroke="#000000"
         stroke-linecap="round"
         stroke-linejoin="round"
         stroke-width="2"
         d="m 45.5218,50.5618 0.797,2.48 -1.1339,4.9948"
         id="path9"
         style="display:inline;stroke-width:1.5;stroke-dasharray:none" />
      <line
         x1="40.63821"
         x2="40.63821"
         y1="55.248871"
         y2="59.499874"
         fill="none"
         stroke="#000000"
         stroke-linecap="round"
         stroke-linejoin="round"
         stroke-width="1.89235"
         id="line15"
         style="display:inline;stroke-width:1.5;stroke-dasharray:none" />
      <path
         fill="none"
         stroke="#000000"
         stroke-linecap="round"
         stroke-linejoin="round"
         stroke-width="2"
         d="m 40.666157,64.563059 c 5.959695,0.415392 9.888377,-1.977525 14.274943,-4.964259 0,0 2,-13 -10,-13 -3.1918,2.1279 -5.9264,3.5984 -9,3.5921 h 0.125 c -3.0736,0.0063 -5.8081,-1.4642 -9,-3.5921 -12,0 -10,13 -10,13 9.9776,6.0208 14.368,3.708 28.1188,-1.5619 l 0.07834,-4.194245 c -8.067778,2.382261 -15.96733,3.492112 -22.653466,2.292523"
         id="path17"
         style="display:inline;stroke-width:1.5;stroke-dasharray:none"
         inkscape:label="body-path"
         sodipodi:nodetypes="cccccccccc" />
    </g>
  </g>
</svg>
